<svg width="145" height="30" viewBox="0 0 145 30" fill="none" xmlns="http://www.w3.org/2000/svg">
<rect width="58" height="30" fill="#2E59C8"/>
<path d="M9.688 20.08C8.58933 20.08 7.59733 19.8347 6.712 19.344C5.83733 18.8533 5.144 18.176 4.632 17.312C4.13067 16.448 3.88 15.4773 3.88 14.4C3.88 13.3227 4.13067 12.352 4.632 11.488C5.144 10.624 5.83733 9.94667 6.712 9.456C7.59733 8.96533 8.58933 8.72 9.688 8.72C10.4987 8.72 11.2453 8.85333 11.928 9.12C12.6107 9.376 13.192 9.76 13.672 10.272L13.16 10.8C12.264 9.91467 11.1173 9.472 9.72 9.472C8.78133 9.472 7.928 9.68533 7.16 10.112C6.392 10.5387 5.78933 11.1307 5.352 11.888C4.91467 12.6347 4.696 13.472 4.696 14.4C4.696 15.328 4.91467 16.1707 5.352 16.928C5.78933 17.6747 6.392 18.2613 7.16 18.688C7.928 19.1147 8.78133 19.328 9.72 19.328C11.1067 19.328 12.2533 18.88 13.16 17.984L13.672 18.512C13.192 19.024 12.6053 19.4133 11.912 19.68C11.2293 19.9467 10.488 20.08 9.688 20.08ZM17.7491 8.128H18.5491V20H17.7491V8.128ZM23.521 11.648H24.321V20H23.521V11.648ZM23.921 9.616C23.7397 9.616 23.585 9.55733 23.457 9.44C23.329 9.312 23.265 9.15733 23.265 8.976C23.265 8.79467 23.329 8.64 23.457 8.512C23.585 8.384 23.7397 8.32 23.921 8.32C24.1023 8.32 24.257 8.384 24.385 8.512C24.513 8.62933 24.577 8.77867 24.577 8.96C24.577 9.14133 24.513 9.296 24.385 9.424C24.257 9.552 24.1023 9.616 23.921 9.616ZM33.3729 11.584C34.4182 11.584 35.2449 11.888 35.8529 12.496C36.4609 13.104 36.7649 13.9787 36.7649 15.12V20H35.9649V15.184C35.9649 14.2453 35.7249 13.5307 35.2449 13.04C34.7755 12.5493 34.1142 12.304 33.2609 12.304C32.2795 12.304 31.5062 12.5973 30.9409 13.184C30.3755 13.7707 30.0929 14.56 30.0929 15.552V20H29.2929V11.648H30.0609V13.456C30.3489 12.8693 30.7755 12.4107 31.3409 12.08C31.9169 11.7493 32.5942 11.584 33.3729 11.584ZM41.6585 11.648H42.4585V20H41.6585V11.648ZM42.0585 9.616C41.8772 9.616 41.7225 9.55733 41.5945 9.44C41.4665 9.312 41.4025 9.15733 41.4025 8.976C41.4025 8.79467 41.4665 8.64 41.5945 8.512C41.7225 8.384 41.8772 8.32 42.0585 8.32C42.2398 8.32 42.3945 8.384 42.5225 8.512C42.6505 8.62933 42.7145 8.77867 42.7145 8.96C42.7145 9.14133 42.6505 9.296 42.5225 9.424C42.3945 9.552 42.2398 9.616 42.0585 9.616ZM50.7424 20.064C49.9317 20.064 49.2064 19.8827 48.5664 19.52C47.9264 19.1573 47.425 18.656 47.0624 18.016C46.6997 17.3653 46.5184 16.6347 46.5184 15.824C46.5184 15.0027 46.6997 14.272 47.0624 13.632C47.425 12.9813 47.9264 12.48 48.5664 12.128C49.2064 11.7653 49.9317 11.584 50.7424 11.584C51.4144 11.584 52.0224 11.7173 52.5664 11.984C53.121 12.24 53.569 12.6187 53.9104 13.12L53.3184 13.552C53.0197 13.136 52.6464 12.8267 52.1984 12.624C51.761 12.4107 51.2757 12.304 50.7424 12.304C50.0917 12.304 49.505 12.4533 48.9824 12.752C48.4704 13.04 48.065 13.4507 47.7664 13.984C47.4784 14.5173 47.3344 15.1307 47.3344 15.824C47.3344 16.5173 47.4784 17.1307 47.7664 17.664C48.065 18.1973 48.4704 18.6133 48.9824 18.912C49.505 19.2 50.0917 19.344 50.7424 19.344C51.2757 19.344 51.761 19.2427 52.1984 19.04C52.6464 18.8267 53.0197 18.512 53.3184 18.096L53.9104 18.528C53.569 19.0293 53.121 19.4133 52.5664 19.68C52.0224 19.936 51.4144 20.064 50.7424 20.064Z" fill="white"/>
<path d="M68.6068 20.08C67.5081 20.08 66.5161 19.8347 65.6308 19.344C64.7561 18.8533 64.0628 18.176 63.5508 17.312C63.0494 16.448 62.7988 15.4773 62.7988 14.4C62.7988 13.3227 63.0494 12.352 63.5508 11.488C64.0628 10.624 64.7561 9.94667 65.6308 9.456C66.5161 8.96533 67.5081 8.72 68.6068 8.72C69.4174 8.72 70.1641 8.85333 70.8468 9.12C71.5294 9.376 72.1108 9.76 72.5908 10.272L72.0788 10.8C71.1828 9.91467 70.0361 9.472 68.6388 9.472C67.7001 9.472 66.8468 9.68533 66.0788 10.112C65.3108 10.5387 64.7081 11.1307 64.2708 11.888C63.8334 12.6347 63.6148 13.472 63.6148 14.4C63.6148 15.328 63.8334 16.1707 64.2708 16.928C64.7081 17.6747 65.3108 18.2613 66.0788 18.688C66.8468 19.1147 67.7001 19.328 68.6388 19.328C70.0254 19.328 71.1721 18.88 72.0788 17.984L72.5908 18.512C72.1108 19.024 71.5241 19.4133 70.8308 19.68C70.1481 19.9467 69.4068 20.08 68.6068 20.08ZM79.3433 11.584C80.3779 11.584 81.1726 11.8507 81.7273 12.384C82.2819 12.9067 82.5593 13.68 82.5593 14.704V20H81.7913V18.512C81.5246 19.0027 81.1353 19.3867 80.6233 19.664C80.1113 19.9307 79.4979 20.064 78.7833 20.064C77.8553 20.064 77.1193 19.8453 76.5753 19.408C76.0419 18.9707 75.7753 18.3947 75.7753 17.68C75.7753 16.9867 76.0206 16.4267 76.5113 16C77.0126 15.5627 77.8073 15.344 78.8953 15.344H81.7593V14.672C81.7593 13.8933 81.5459 13.3013 81.1193 12.896C80.7033 12.4907 80.0899 12.288 79.2793 12.288C78.7246 12.288 78.1913 12.384 77.6793 12.576C77.1779 12.768 76.7513 13.024 76.3993 13.344L75.9993 12.768C76.4153 12.3947 76.9166 12.1067 77.5033 11.904C78.0899 11.6907 78.7033 11.584 79.3433 11.584ZM78.8953 19.408C79.5886 19.408 80.1753 19.248 80.6553 18.928C81.1459 18.608 81.5139 18.144 81.7593 17.536V15.968H78.9113C78.0899 15.968 77.4926 16.1173 77.1193 16.416C76.7566 16.7147 76.5753 17.1253 76.5753 17.648C76.5753 18.192 76.7779 18.624 77.1833 18.944C77.5886 19.2533 78.1593 19.408 78.8953 19.408ZM87.4554 8.128H88.2554V20H87.4554V8.128ZM100.283 16.016H93.0993C93.1206 16.6667 93.2859 17.248 93.5953 17.76C93.9046 18.2613 94.3206 18.6507 94.8433 18.928C95.3766 19.2053 95.9739 19.344 96.6353 19.344C97.1793 19.344 97.6806 19.248 98.1393 19.056C98.6086 18.8533 98.9979 18.56 99.3073 18.176L99.7713 18.704C99.4086 19.1413 98.9499 19.4773 98.3953 19.712C97.8513 19.9467 97.2593 20.064 96.6193 20.064C95.7873 20.064 95.0459 19.8827 94.3953 19.52C93.7446 19.1573 93.2326 18.656 92.8593 18.016C92.4966 17.376 92.3153 16.6453 92.3153 15.824C92.3153 15.0133 92.4859 14.288 92.8273 13.648C93.1793 12.9973 93.6593 12.4907 94.2673 12.128C94.8753 11.7653 95.5579 11.584 96.3153 11.584C97.0726 11.584 97.7499 11.7653 98.3473 12.128C98.9553 12.48 99.4299 12.976 99.7713 13.616C100.123 14.256 100.299 14.9813 100.299 15.792L100.283 16.016ZM96.3153 12.288C95.7286 12.288 95.2006 12.4213 94.7313 12.688C94.2619 12.944 93.8833 13.312 93.5953 13.792C93.3179 14.2613 93.1579 14.7947 93.1153 15.392H99.5153C99.4833 14.7947 99.3233 14.2613 99.0353 13.792C98.7473 13.3227 98.3686 12.9547 97.8993 12.688C97.4299 12.4213 96.9019 12.288 96.3153 12.288ZM108.454 11.584C109.499 11.584 110.326 11.888 110.934 12.496C111.542 13.104 111.846 13.9787 111.846 15.12V20H111.046V15.184C111.046 14.2453 110.806 13.5307 110.326 13.04C109.857 12.5493 109.195 12.304 108.342 12.304C107.361 12.304 106.587 12.5973 106.022 13.184C105.457 13.7707 105.174 14.56 105.174 15.552V20H104.374V11.648H105.142V13.456C105.43 12.8693 105.857 12.4107 106.422 12.08C106.998 11.7493 107.675 11.584 108.454 11.584ZM124.179 8.128V20H123.395V18.032C123.065 18.6827 122.601 19.184 122.003 19.536C121.406 19.888 120.729 20.064 119.971 20.064C119.193 20.064 118.489 19.8827 117.859 19.52C117.23 19.1573 116.734 18.656 116.371 18.016C116.019 17.376 115.843 16.6453 115.843 15.824C115.843 15.0027 116.019 14.272 116.371 13.632C116.734 12.9813 117.23 12.48 117.859 12.128C118.489 11.7653 119.193 11.584 119.971 11.584C120.718 11.584 121.385 11.76 121.971 12.112C122.569 12.464 123.038 12.9547 123.379 13.584V8.128H124.179ZM120.019 19.344C120.659 19.344 121.23 19.1947 121.731 18.896C122.243 18.5973 122.643 18.1813 122.931 17.648C123.23 17.1147 123.379 16.5067 123.379 15.824C123.379 15.1413 123.23 14.5333 122.931 14C122.643 13.4667 122.243 13.0507 121.731 12.752C121.23 12.4533 120.659 12.304 120.019 12.304C119.379 12.304 118.803 12.4533 118.291 12.752C117.79 13.0507 117.39 13.4667 117.091 14C116.803 14.5333 116.659 15.1413 116.659 15.824C116.659 16.5067 116.803 17.1147 117.091 17.648C117.39 18.1813 117.79 18.5973 118.291 18.896C118.803 19.1947 119.379 19.344 120.019 19.344ZM131.968 11.584C133.003 11.584 133.798 11.8507 134.352 12.384C134.907 12.9067 135.184 13.68 135.184 14.704V20H134.416V18.512C134.15 19.0027 133.76 19.3867 133.248 19.664C132.736 19.9307 132.123 20.064 131.408 20.064C130.48 20.064 129.744 19.8453 129.2 19.408C128.667 18.9707 128.4 18.3947 128.4 17.68C128.4 16.9867 128.646 16.4267 129.136 16C129.638 15.5627 130.432 15.344 131.52 15.344H134.384V14.672C134.384 13.8933 134.171 13.3013 133.744 12.896C133.328 12.4907 132.715 12.288 131.904 12.288C131.35 12.288 130.816 12.384 130.304 12.576C129.803 12.768 129.376 13.024 129.024 13.344L128.624 12.768C129.04 12.3947 129.542 12.1067 130.128 11.904C130.715 11.6907 131.328 11.584 131.968 11.584ZM131.52 19.408C132.214 19.408 132.8 19.248 133.28 18.928C133.771 18.608 134.139 18.144 134.384 17.536V15.968H131.536C130.715 15.968 130.118 16.1173 129.744 16.416C129.382 16.7147 129.2 17.1253 129.2 17.648C129.2 18.192 129.403 18.624 129.808 18.944C130.214 19.2533 130.784 19.408 131.52 19.408ZM140.848 13.472C141.104 12.864 141.504 12.4 142.048 12.08C142.592 11.7493 143.254 11.584 144.032 11.584V12.368L143.84 12.352C142.912 12.352 142.187 12.6453 141.664 13.232C141.142 13.808 140.88 14.6133 140.88 15.648V20H140.08V11.648H140.848V13.472Z" fill="black"/>
</svg>
